HIERARCHY
ROOT Hips
{
 OFFSET 0.000000 0.000000 0.000000
 CHANNELS 6 Xposition Yposition Zposition Yrotation Xrotation Zrotation
 JOINT Chest
 {
  OFFSET 0.000000 10.383400 0.001500
  CHANNELS 3 Yrotation Xrotation Zrotation
  JOINT Chest2
  {
   OFFSET 0.000000 10.418200 -0.003100
   CHANNELS 3 Yrotation Xrotation Zrotation
   JOINT Chest3
   {
    OFFSET 0.000000 10.375100 0.000000
    CHANNELS 3 Yrotation Xrotation Zrotation
    JOINT Chest4
    {
     OFFSET 0.000000 10.364600 0.000000
     CHANNELS 3 Yrotation Xrotation Zrotation
     JOINT Neck
     {
      OFFSET 0.000000 15.642200 0.000000
      CHANNELS 3 Yrotation Xrotation Zrotation
      JOINT Head
      {
       OFFSET 0.000000 9.697300 -0.006500
       CHANNELS 3 Yrotation Xrotation Zrotation
       End Site
       {
        OFFSET 0.000000 18.492200 -0.003400
       }
      }
     }
     JOINT RightCollar
     {
      OFFSET -3.166800 10.349300 0.000000
      CHANNELS 3 Yrotation Xrotation Zrotation
      JOINT RightShoulder
      {
       OFFSET -14.729700 0.000000 0.000000
       CHANNELS 3 Yrotation Xrotation Zrotation
       JOINT RightElbow
       {
        OFFSET 0.000000 -32.224300 0.000000
        CHANNELS 3 Yrotation Xrotation Zrotation
        JOINT RightWrist
        {
         OFFSET 0.000000 -26.084100 0.000000
         CHANNELS 3 Yrotation Xrotation Zrotation
         End Site
         {
          OFFSET 0.000000 -19.319400 0.000000
         }
        }
       }
      }
     }
     JOINT LeftCollar
     {
      OFFSET 3.166800 10.349300 0.000000
      CHANNELS 3 Yrotation Xrotation Zrotation
      JOINT LeftShoulder
      {
       OFFSET 14.729700 0.000000 0.000000
       CHANNELS 3 Yrotation Xrotation Zrotation
       JOINT LeftElbow
       {
        OFFSET 0.000000 -32.224300 0.000000
        CHANNELS 3 Yrotation Xrotation Zrotation
        JOINT LeftWrist
        {
         OFFSET 0.000000 -26.084100 0.000000
         CHANNELS 3 Yrotation Xrotation Zrotation
         End Site
         {
          OFFSET 0.000000 -19.319400 0.000000
         }
        }
       }
      }
     }
    }
   }
  }
 }
 JOINT RightHip
 {
  OFFSET -8.428900 -0.007500 -0.000800
  CHANNELS 3 Yrotation Xrotation Zrotation
  JOINT RightKnee
  {
   OFFSET 0.000000 -43.834600 0.000700
   CHANNELS 3 Yrotation Xrotation Zrotation
   JOINT RightAnkle
   {
    OFFSET 0.000000 -42.757000 0.001200
    CHANNELS 3 Yrotation Xrotation Zrotation
    JOINT RightToe
    {
     OFFSET 0.000000 -6.946900 15.649300
     CHANNELS 3 Yrotation Xrotation Zrotation
     End Site
     {
      OFFSET 0.000000 -1.580800 6.825800
     }
    }
   }
  }
 }
 JOINT LeftHip
 {
  OFFSET 8.428900 -0.007500 -0.000800
  CHANNELS 3 Yrotation Xrotation Zrotation
  JOINT LeftKnee
  {
   OFFSET 0.000000 -43.834600 0.000700
   CHANNELS 3 Yrotation Xrotation Zrotation
   JOINT LeftAnkle
   {
    OFFSET 0.000000 -42.757000 0.001200
    CHANNELS 3 Yrotation Xrotation Zrotation
    JOINT LeftToe
    {
     OFFSET 0.000000 -6.946900 15.649300
     CHANNELS 3 Yrotation Xrotation Zrotation
     End Site
     {
      OFFSET 0.000000 -1.580800 6.825800
     }
    }
   }
  }
 }
}
MOTION
Frames: 16
Frame Time: 0.008333
-0.635222 126.681935 -4.633904 173.271758 -23.520569 -2.476022 -3.423343 17.140916 0.707862 -0.364292 1.813158 0.117522 -0.630439 3.092225 0.208219 -2.987125 14.975227 0.669721 -2.972490 14.395742 2.462534 -3.700199 -10.615790 3.279210 2.676452 1.965215 -3.838259 21.273456 -10.723223 -13.034240 -162.290995 -69.647393 -158.198752 11.917925 -29.508379 -68.051033 -5.046239 4.482008 0.597182 -6.275014 -14.560481 10.097250 88.514844 -56.139215 -137.891373 3.831827 -15.110541 5.949744 9.739140 -48.869831 5.035598 -32.071938 79.926454 -29.965991 -6.916029 -18.058668 6.480894 0.007674 -0.015681 0.003406 2.046641 -46.152011 -3.747357 102.872301 79.757684 108.303652 9.088145 -19.055424 -9.938125 0.001266 -0.000997 0.000562
-0.637084 126.681337 -4.636044 173.276731 -23.511001 -2.474065 -3.420488 17.109112 0.700410 -0.361705 1.812795 0.116456 -0.630142 3.070832 0.208047 -2.982434 14.965820 0.667448 -2.984721 14.407845 2.471259 -3.724273 -10.534896 3.298610 2.675661 2.021221 -3.827217 21.297002 -10.749013 -13.045380 -162.499664 -69.589500 -158.020459 11.883892 -29.479424 -68.104533 -5.076989 4.564439 0.595525 -6.259139 -14.613593 10.124397 88.613857 -56.114688 -137.982339 3.801148 -15.043469 5.896114 9.705063 -48.867272 5.045917 -32.158261 79.897007 -30.082689 -6.884419 -18.037826 6.530902 -0.000006 -0.013346 -0.000002 2.046803 -46.158742 -3.758863 102.837153 79.755853 108.270056 9.079235 -19.057877 -9.936530 -0.002643 -0.003908 -0.001173
-0.637937 126.680040 -4.636095 173.287144 -23.491297 -2.479334 -3.419453 17.072478 0.697898 -0.366060 1.821080 0.120713 -0.609166 3.027152 0.196456 -2.988996 14.979343 0.673932 -3.002307 14.434790 2.480844 -3.749902 -10.500653 3.316673 2.685407 2.072874 -3.818776 21.383706 -10.799345 -13.076840 -162.746857 -69.562443 -157.871748 11.963668 -29.486379 -68.281453 -5.104843 4.639448 0.590489 -6.238642 -14.672531 10.155485 88.681427 -56.083579 -138.053653 3.786638 -14.939660 5.816940 9.695428 -48.879207 5.036945 -32.187193 79.875567 -30.117706 -6.863944 -18.018034 6.552808 -0.003026 -0.016015 -0.001343 2.039277 -46.177690 -3.760350 102.815120 79.758230 108.251380 9.076034 -19.055422 -9.939041 -0.001732 -0.003592 -0.000769
-0.638994 126.679368 -4.637496 173.288430 -23.481441 -2.477185 -3.410062 17.053616 0.693343 -0.371120 1.823397 0.123262 -0.601536 3.009945 0.194994 -2.983921 14.962448 0.673120 -3.024720 14.462205 2.487528 -3.775829 -10.471047 3.329441 2.678119 2.119155 -3.809131 21.446562 -10.821579 -13.095781 -162.999183 -69.512313 -157.677153 12.064046 -29.493375 -68.517803 -5.130999 4.723596 0.579631 -6.212932 -14.743244 10.195279 88.693786 -56.034889 -138.082515 3.774061 -14.784200 5.684891 9.703393 -48.880630 5.017300 -32.182660 79.856697 -30.113811 -6.841461 -17.996193 6.571396 -0.003074 -0.019452 -0.001364 2.040091 -46.180085 -3.764153 102.756688 79.760828 108.193783 9.081190 -19.052499 -9.946238 0.000783 0.000806 0.000347
-0.639444 126.678833 -4.638947 173.289211 -23.473696 -2.476641 -3.393348 17.023872 0.692933 -0.375377 1.831454 0.125685 -0.601157 2.988576 0.191857 -2.976231 14.940414 0.672177 -3.051406 14.500971 2.491010 -3.786045 -10.442909 3.337016 2.679999 2.192393 -3.799431 21.505228 -10.852162 -13.114746 -163.246958 -69.464953 -157.487748 12.149706 -29.480277 -68.780003 -5.157918 4.817804 0.571811 -6.196509 -14.793598 10.223053 88.683139 -56.005847 -138.084160 3.783280 -14.581103 5.494641 9.709930 -48.882041 5.002452 -32.142850 79.846844 -30.071118 -6.850605 -17.962372 6.603610 -0.003689 -0.021961 -0.001637 2.043118 -46.186748 -3.765581 102.738339 79.763807 108.177285 9.090403 -19.043846 -9.953969 0.003530 0.000830 0.001567
-0.638631 126.678447 -4.640358 173.285085 -23.467919 -2.480078 -3.378741 16.988630 0.693563 -0.375714 1.837947 0.129258 -0.594236 2.960083 0.186012 -2.963208 14.911626 0.669439 -3.082475 14.557201 2.493292 -3.829602 -10.377731 3.349387 2.679421 2.286531 -3.780363 21.564747 -10.877144 -13.134005 -163.464265 -69.418883 -157.321797 12.263426 -29.451122 -69.111439 -5.186834 4.912236 0.577602 -6.178223 -14.822616 10.238789 88.611739 -55.921939 -138.027730 3.774259 -14.281855 5.250348 9.710592 -48.889071 5.003055 -32.192477 79.829027 -30.127208 -6.825736 -17.880914 6.648556 -0.001702 -0.017631 -0.000756 2.047627 -46.193756 -3.758548 102.741775 79.767720 108.184640 9.094686 -19.035953 -9.958967 0.003940 -0.000535 0.001749
-0.638833 126.677940 -4.641653 173.281708 -23.461329 -2.477922 -3.363571 16.937327 0.684963 -0.365381 1.805422 0.123226 -0.602589 2.990655 0.194565 -2.944538 14.862075 0.661390 -3.116037 14.627345 2.494707 -3.876274 -10.294390 3.359834 2.679931 2.400005 -3.757704 21.618707 -10.903309 -13.152304 -163.640275 -69.375418 -157.184311 12.401158 -29.408516 -69.507396 -5.232640 5.060571 0.571457 -6.056612 -14.925315 10.277471 88.374488 -55.782882 -137.875241 3.761464 -13.913569 4.943208 9.718793 -48.887734 4.995471 -32.210769 79.799816 -30.149591 -6.809521 -17.815940 6.669282 -0.003911 -0.016109 -0.001736 2.055083 -46.201021 -3.759969 102.715237 79.770839 108.160151 9.093023 -19.025339 -9.958769 0.001531 -0.002410 0.000679
-0.639132 126.677470 -4.643032 173.276927 -23.455728 -2.474849 -3.354656 16.912331 0.680636 -0.357694 1.779699 0.116043 -0.610021 3.019001 0.203431 -2.922166 14.785667 0.644651 -3.148189 14.698117 2.496187 -3.911453 -10.218646 3.369349 2.680336 2.508231 -3.730586 21.673776 -10.925292 -13.171184 -163.745148 -69.365634 -157.133118 12.558315 -29.389852 -69.914992 -5.260847 5.243841 0.543364 -5.954833 -15.050170 10.325125 88.184886 -55.673303 -137.751086 3.758781 -13.503326 4.598167 9.723449 -48.880447 4.996586 -32.190468 79.770281 -30.136429 -6.803027 -17.770830 6.680035 -0.003525 -0.019319 -0.001564 2.063666 -46.207087 -3.762056 102.712857 79.775383 108.161184 9.094144 -19.020038 -9.960023 0.000813 -0.005165 0.000361
-0.639356 126.676456 -4.643059 173.262565 -23.442846 -2.469996 -3.336831 16.880347 0.678300 -0.345596 1.751792 0.104000 -0.609693 3.002340 0.206629 -2.923721 14.806713 0.646245 -3.168238 14.725811 2.485484 -3.942204 -10.155646 3.380298 2.691301 2.566351 -3.712801 21.730991 -10.943797 -13.193507 -163.843177 -69.357589 -157.082389 12.715938 -29.379507 -70.333650 -5.263304 5.320542 0.528260 -5.864088 -15.120606 10.332868 88.046382 -55.582356 -137.650534 3.744941 -13.064803 4.232931 9.735325 -48.885211 5.000942 -32.112808 79.740278 -30.070668 -6.803565 -17.711185 6.692135 -0.005260 -0.026673 -0.002334 2.079703 -46.220780 -3.757841 102.735098 79.780128 108.184325 9.091998 -19.017095 -9.957937 0.002232 -0.006305 0.000991
-0.639788 126.675911 -4.644302 173.262211 -23.436698 -2.469801 -3.310175 16.833892 0.657246 -0.355491 1.771522 0.116116 -0.608702 2.975742 0.207459 -2.925169 14.817912 0.649539 -3.182706 14.757003 2.474251 -3.967028 -10.110566 3.393152 2.737881 2.635311 -3.695817 21.751956 -10.977778 -13.218041 -163.963272 -69.321371 -156.981998 12.878280 -29.356191 -70.774626 -5.259222 5.386188 0.512149 -5.775959 -15.193583 10.332651 87.918058 -55.523747 -137.568356 3.719834 -12.632539 3.873859 9.728276 -48.882421 5.012530 -32.031420 79.719008 -30.001712 -6.807634 -17.634748 6.704129 -0.003788 -0.024557 -0.001681 2.084795 -46.225815 -3.757395 102.730397 79.783400 108.183159 9.077705 -19.012554 -9.955803 -0.000819 -0.005509 -0.000364
-0.638021 126.675706 -4.645825 173.271968 -23.433711 -2.486551 -3.302952 16.827915 0.658928 -0.359315 1.769292 0.122748 -0.596314 2.952472 0.196173 -2.915101 14.800455 0.641637 -3.203547 14.809826 2.484818 -3.985462 -10.082858 3.406549 2.724751 2.686672 -3.658666 21.816861 -10.989549 -13.234526 -164.092958 -69.280026 -156.882337 13.047323 -29.348590 -71.196020 -5.264908 5.461213 0.514830 -5.687015 -15.268022 10.322426 87.765883 -55.515197 -137.501723 3.686400 -12.238751 3.536747 9.681186 -48.874849 5.055721 -31.917676 79.697552 -29.913570 -6.778107 -17.526463 6.716107 0.002488 -0.007601 0.001104 2.076274 -46.224198 -3.740510 102.691006 79.788972 108.154080 9.069902 -19.011277 -9.963469 0.000307 -0.001763 0.000136
-0.637728 126.675123 -4.646777 173.276798 -23.426465 -2.494454 -3.295061 16.823165 0.655809 -0.362657 1.765249 0.126877 -0.576923 2.946919 0.170855 -2.913142 14.793230 0.650198 -3.215050 14.833589 2.499621 -3.997828 -10.069366 3.419851 2.747512 2.722194 -3.621287 21.850591 -11.013750 -13.257601 -164.373092 -69.165046 -156.619420 13.159188 -29.303346 -71.618504 -5.268076 5.496566 0.525867 -5.586606 -15.337946 10.294411 87.773186 -55.394295 -137.447257 3.649712 -11.692187 3.070761 9.662006 -48.875851 5.076272 -31.852595 79.681438 -29.860696 -6.767470 -17.446035 6.721499 0.003781 -0.003343 0.001678 2.068594 -46.230744 -3.732362 102.677731 79.783416 108.145875 9.058284 -19.007544 -9.971820 -0.000612 -0.001258 -0.000272
-0.638674 126.673964 -4.646544 173.283332 -23.411428 -2.497528 -3.288234 16.809893 0.649593 -0.355578 1.767458 0.116743 -0.580698 2.940048 0.179038 -2.911351 14.795042 0.641744 -3.217210 14.835000 2.513706 -4.006324 -10.061152 3.432804 2.811777 2.764263 -3.585160 21.846477 -11.055296 -13.289293 -164.640637 -69.079123 -156.393571 13.282568 -29.296967 -72.003229 -5.264294 5.521212 0.528354 -5.487981 -15.411113 10.263684 87.770952 -55.316480 -137.425730 3.612513 -11.189017 2.630067 9.651941 -48.883450 5.084017 -31.823749 79.665385 -29.840792 -6.763287 -17.393941 6.726082 0.002426 -0.006170 0.001077 2.064798 -46.244200 -3.733279 102.668806 79.782173 108.138859 9.061531 -19.005373 -9.979403 0.001038 0.000065 0.000461
-0.641130 126.673181 -4.647355 173.285789 -23.402377 -2.490273 -3.277498 16.798394 0.634145 -0.354519 1.764779 0.115884 -0.583688 2.938357 0.181243 -2.900671 14.795723 0.635530 -3.227917 14.838207 2.531263 -4.014959 -10.049988 3.439055 2.822646 2.790919 -3.557990 21.883081 -11.088467 -13.311277 -164.889487 -69.006770 -156.186449 13.422809 -29.300907 -72.379445 -5.262672 5.554943 0.523490 -5.401198 -15.483464 10.230632 87.682379 -55.307869 -137.392143 3.563514 -10.770746 2.228635 9.659007 -48.884899 5.074048 -31.810904 79.651260 -29.833517 -6.758643 -17.364371 6.730157 0.000043 -0.015515 0.000019 2.074552 -46.251250 -3.744011 102.653092 79.778641 108.118712 9.045318 -19.006928 -9.972775 -0.003700 -0.001037 -0.001642
-0.641521 126.672985 -4.648738 173.292395 -23.399718 -2.495716 -3.270203 16.793518 0.631684 -0.347227 1.758927 0.110009 -0.597912 2.943748 0.192823 -2.887555 14.774853 0.616743 -3.234343 14.855617 2.552382 -4.019123 -10.048004 3.451469 2.821838 2.824162 -3.527692 21.916475 -11.113588 -13.326414 -165.134645 -68.921626 -155.963384 13.572764 -29.292158 -72.770446 -5.257009 5.602674 0.528150 -5.319631 -15.543908 10.184103 87.681109 -55.217047 -137.374068 3.510476 -10.236132 1.755160 9.647296 -48.884291 5.085100 -31.818086 79.640903 -29.848248 -6.736416 -17.311776 6.736179 0.003569 -0.014935 0.001584 2.073734 -46.249555 -3.737574 102.647136 79.783070 108.112766 9.045043 -19.012475 -9.973546 -0.001646 0.000013 -0.000731
-0.641946 126.672655 -4.649354 173.305940 -23.394358 -2.504287 -3.277464 16.788125 0.633581 -0.339374 1.752033 0.104480 -0.590726 2.940951 0.187378 -2.880985 14.765427 0.612405 -3.220935 14.832490 2.572871 -4.043009 -10.020111 3.472463 2.817021 2.852579 -3.499339 21.917436 -11.127294 -13.334885 -165.355744 -68.815073 -155.727546 13.735419 -29.266857 -73.188533 -5.257382 5.646873 0.528724 -5.292748 -15.581711 10.174179 87.698900 -55.080769 -137.338829 3.449586 -9.676905 1.263469 9.630800 -48.890666 5.095758 -31.845703 79.633130 -29.879735 -6.732873 -17.238210 6.747535 0.004077 -0.007440 0.001810 2.061867 -46.252716 -3.730010 102.650612 79.785267 108.113988 9.039339 -19.017169 -9.970277 -0.003090 0.001217 -0.001372
